<svg width="30" height="30" viewBox="0 0 30 30" fill="none" xmlns="http://www.w3.org/2000/svg">
<g clip-path="url(#clip0)">
<path d="M29.5308 6.17415C29.1284 5.67622 28.5302 5.3907 27.8899 5.3907H5.02362L4.81943 3.92727C4.67482 2.89099 3.7767 2.10947 2.73028 2.10947H0.937495C0.419763 2.10947 0 2.52923 0 3.04696C0 3.56469 0.419763 3.98446 0.937495 3.98446H2.73028C2.84653 3.98446 2.94637 4.07129 2.96237 4.18643L5.49296 22.3228C5.63757 23.3591 6.53568 24.1406 7.5821 24.1406H8.59864C8.49458 24.434 8.43739 24.7494 8.43739 25.0781C8.43739 26.6289 9.69908 27.8906 11.2499 27.8906C12.8007 27.8906 14.0624 26.6289 14.0624 25.0781C14.0624 24.7494 14.0052 24.434 13.9011 24.1406H18.9111C18.807 24.434 18.7498 24.7494 18.7498 25.0781C18.7498 26.6289 20.0115 27.8906 21.5623 27.8906C23.1131 27.8906 24.3748 26.6289 24.3748 25.0781C24.3748 24.7494 24.3176 24.434 24.2136 24.1406H26.2498C26.7676 24.1406 27.1873 23.7208 27.1873 23.2031C27.1873 22.6854 26.7676 22.2656 26.2498 22.2656H7.58216C7.46591 22.2656 7.36607 22.1788 7.35007 22.0636L7.11664 20.3906H25.5795C26.5673 20.3906 27.4348 19.6895 27.6423 18.7232L29.9526 7.94215C30.0868 7.31631 29.9331 6.6719 29.5308 6.17415ZM12.1874 25.0781C12.1874 25.595 11.7668 26.0156 11.2499 26.0156C10.733 26.0156 10.3124 25.595 10.3124 25.0781C10.3124 24.5612 10.733 24.1406 11.2499 24.1406C11.7668 24.1406 12.1874 24.5611 12.1874 25.0781ZM22.4999 25.0781C22.4999 25.595 22.0793 26.0156 21.5624 26.0156C21.0455 26.0156 20.6249 25.595 20.6249 25.0781C20.6249 24.5612 21.0455 24.1406 21.5624 24.1406C22.0793 24.1406 22.4999 24.5611 22.4999 25.0781ZM28.1193 7.5491L25.809 18.3299C25.786 18.4375 25.6894 18.5156 25.5795 18.5156H6.85496L5.28524 7.26563H27.8899C27.9826 7.26563 28.0404 7.31297 28.0725 7.3527C28.1046 7.39237 28.1387 7.45863 28.1193 7.5491Z" fill="#545769"/>
</g>
<defs>
<clipPath id="clip0">
<rect width="30" height="30" fill="white"/>
</clipPath>
</defs>
</svg>
