<svg width="218" height="48" viewBox="0 0 218 48" fill="none" xmlns="http://www.w3.org/2000/svg">
<path d="M18.632 47.768C15.9867 47.768 13.5547 47.2773 11.336 46.296C9.11733 45.3147 7.176 43.9067 5.512 42.072C3.89067 40.1947 2.61067 37.912 1.672 35.224C0.776 32.4933 0.328 29.4213 0.328 26.008C0.328 22.6373 0.797333 19.608 1.736 16.92C2.67467 14.232 3.976 11.9493 5.64 10.072C7.304 8.19466 9.26667 6.76533 11.528 5.784C13.7893 4.76 16.264 4.248 18.952 4.248C21.512 4.248 23.752 4.78133 25.672 5.848C27.6347 6.872 29.2347 8.06667 30.472 9.432L27.592 12.888C26.4827 11.6933 25.224 10.7333 23.816 10.008C22.408 9.28267 20.808 8.92 19.016 8.92C17.0107 8.92 15.1973 9.32533 13.576 10.136C11.9547 10.904 10.568 12.0347 9.416 13.528C8.264 14.9787 7.368 16.7493 6.728 18.84C6.13067 20.9307 5.832 23.2773 5.832 25.88C5.832 28.5253 6.13067 30.9147 6.728 33.048C7.368 35.1387 8.24267 36.9307 9.352 38.424C10.4613 39.9173 11.8053 41.0693 13.384 41.88C15.0053 42.6907 16.8187 43.096 18.824 43.096C20.872 43.096 22.664 42.6907 24.2 41.88C25.736 41.0267 27.1867 39.8533 28.552 38.36L31.496 41.688C29.832 43.608 27.9547 45.1013 25.864 46.168C23.7733 47.2347 21.3627 47.768 18.632 47.768ZM50.9065 47.768C48.9865 47.768 47.1518 47.4053 45.4025 46.68C43.6958 45.9547 42.1812 44.9093 40.8585 43.544C39.5358 42.136 38.4692 40.4293 37.6585 38.424C36.8905 36.376 36.5065 34.072 36.5065 31.512C36.5065 28.9093 36.8905 26.6053 37.6585 24.6C38.4692 22.552 39.5358 20.824 40.8585 19.416C42.1812 18.008 43.6958 16.9413 45.4025 16.216C47.1518 15.4907 48.9865 15.128 50.9065 15.128C52.8265 15.128 54.6398 15.4907 56.3465 16.216C58.0958 16.9413 59.6318 18.008 60.9545 19.416C62.2772 20.824 63.3225 22.552 64.0905 24.6C64.9012 26.6053 65.3065 28.9093 65.3065 31.512C65.3065 34.072 64.9012 36.376 64.0905 38.424C63.3225 40.4293 62.2772 42.136 60.9545 43.544C59.6318 44.9093 58.0958 45.9547 56.3465 46.68C54.6398 47.4053 52.8265 47.768 50.9065 47.768ZM50.9065 43.416C52.2292 43.416 53.4452 43.1387 54.5545 42.584C55.6638 41.9867 56.6025 41.176 57.3705 40.152C58.1812 39.0853 58.7998 37.8267 59.2265 36.376C59.6532 34.9253 59.8665 33.304 59.8665 31.512C59.8665 29.72 59.6532 28.0987 59.2265 26.648C58.7998 25.1547 58.1812 23.8747 57.3705 22.808C56.6025 21.7413 55.6638 20.9307 54.5545 20.376C53.4452 19.7787 52.2292 19.48 50.9065 19.48C49.5838 19.48 48.3678 19.7787 47.2585 20.376C46.1492 20.9307 45.1892 21.7413 44.3785 22.808C43.6105 23.8747 43.0132 25.1547 42.5865 26.648C42.1598 28.0987 41.9465 29.72 41.9465 31.512C41.9465 33.304 42.1598 34.9253 42.5865 36.376C43.0132 37.8267 43.6105 39.0853 44.3785 40.152C45.1892 41.176 46.1492 41.9867 47.2585 42.584C48.3678 43.1387 49.5838 43.416 50.9065 43.416ZM73.498 47V15.896H77.85L78.298 20.376H78.49C79.8553 18.8827 81.3273 17.6453 82.906 16.664C84.5273 15.64 86.2767 15.128 88.154 15.128C90.5433 15.128 92.3993 15.6613 93.722 16.728C95.0873 17.752 96.09 19.2027 96.73 21.08C98.3513 19.288 99.9727 17.8587 101.594 16.792C103.258 15.6827 105.05 15.128 106.97 15.128C110.17 15.128 112.538 16.152 114.074 18.2C115.653 20.248 116.442 23.2773 116.442 27.288V47H111.194V27.992C111.194 25.048 110.725 22.936 109.786 21.656C108.847 20.3333 107.397 19.672 105.434 19.672C103.087 19.672 100.485 21.272 97.626 24.472V47H92.378V27.992C92.378 25.048 91.9087 22.936 90.97 21.656C90.0313 20.3333 88.5593 19.672 86.554 19.672C84.2073 19.672 81.6047 21.272 78.746 24.472V47H73.498ZM127.457 47V20.184H123.233V16.216L127.457 15.896V10.968C127.457 7.768 128.182 5.25067 129.633 3.416C131.126 1.58133 133.43 0.663998 136.545 0.663998C137.526 0.663998 138.443 0.770664 139.297 0.983997C140.193 1.15466 141.003 1.38933 141.729 1.688L140.577 5.72C139.425 5.208 138.251 4.952 137.057 4.952C134.155 4.952 132.705 6.95733 132.705 10.968V15.896H139.297V20.184H132.705V47H127.457ZM156.719 47.768C154.799 47.768 152.964 47.4053 151.215 46.68C149.508 45.9547 147.994 44.9093 146.671 43.544C145.348 42.136 144.282 40.4293 143.471 38.424C142.703 36.376 142.319 34.072 142.319 31.512C142.319 28.9093 142.703 26.6053 143.471 24.6C144.282 22.552 145.348 20.824 146.671 19.416C147.994 18.008 149.508 16.9413 151.215 16.216C152.964 15.4907 154.799 15.128 156.719 15.128C158.639 15.128 160.452 15.4907 162.159 16.216C163.908 16.9413 165.444 18.008 166.767 19.416C168.09 20.824 169.135 22.552 169.903 24.6C170.714 26.6053 171.119 28.9093 171.119 31.512C171.119 34.072 170.714 36.376 169.903 38.424C169.135 40.4293 168.09 42.136 166.767 43.544C165.444 44.9093 163.908 45.9547 162.159 46.68C160.452 47.4053 158.639 47.768 156.719 47.768ZM156.719 43.416C158.042 43.416 159.258 43.1387 160.367 42.584C161.476 41.9867 162.415 41.176 163.183 40.152C163.994 39.0853 164.612 37.8267 165.039 36.376C165.466 34.9253 165.679 33.304 165.679 31.512C165.679 29.72 165.466 28.0987 165.039 26.648C164.612 25.1547 163.994 23.8747 163.183 22.808C162.415 21.7413 161.476 20.9307 160.367 20.376C159.258 19.7787 158.042 19.48 156.719 19.48C155.396 19.48 154.18 19.7787 153.071 20.376C151.962 20.9307 151.002 21.7413 150.191 22.808C149.423 23.8747 148.826 25.1547 148.399 26.648C147.972 28.0987 147.759 29.72 147.759 31.512C147.759 33.304 147.972 34.9253 148.399 36.376C148.826 37.8267 149.423 39.0853 150.191 40.152C151.002 41.176 151.962 41.9867 153.071 42.584C154.18 43.1387 155.396 43.416 156.719 43.416ZM179.311 47V15.896H183.663L184.111 21.528H184.303C185.369 19.5653 186.649 18.008 188.143 16.856C189.679 15.704 191.343 15.128 193.135 15.128C194.372 15.128 195.481 15.3413 196.463 15.768L195.439 20.376C194.927 20.2053 194.457 20.0773 194.031 19.992C193.604 19.9067 193.071 19.864 192.431 19.864C191.108 19.864 189.721 20.3973 188.271 21.464C186.863 22.5307 185.625 24.3867 184.559 27.032V47H179.311ZM211.29 47.768C209.626 47.768 208.218 47.512 207.066 47C205.957 46.488 205.039 45.784 204.314 44.888C203.631 43.992 203.141 42.904 202.842 41.624C202.543 40.344 202.394 38.936 202.394 37.4V20.184H197.786V16.216L202.65 15.896L203.29 7.192H207.706V15.896H216.09V20.184H207.706V37.464C207.706 39.384 208.047 40.8773 208.73 41.944C209.455 42.968 210.714 43.48 212.506 43.48C213.061 43.48 213.658 43.3947 214.298 43.224C214.938 43.0533 215.514 42.8613 216.026 42.648L217.05 46.616C216.197 46.9147 215.258 47.1707 214.234 47.384C213.253 47.64 212.271 47.768 211.29 47.768Z" fill="#545769"/>
</svg>
