<svg width="50" height="50" viewBox="0 0 50 50" fill="none" xmlns="http://www.w3.org/2000/svg">
<path d="M25 50C38.8071 50 50 38.8071 50 25C50 11.1929 38.8071 0 25 0C11.1929 0 0 11.1929 0 25C0 38.8071 11.1929 50 25 50Z" fill="#039BE5"/>
<path d="M11.4396 24.4588L35.5438 15.165C36.6625 14.7608 37.6396 15.4379 37.2771 17.1296L37.2792 17.1275L33.175 36.463C32.8708 37.8338 32.0563 38.1671 30.9167 37.5213L24.6667 32.915L21.6521 35.8192C21.3187 36.1525 21.0375 36.4338 20.3917 36.4338L20.8354 30.0734L32.4188 19.6088C32.9229 19.165 32.3063 18.915 31.6417 19.3567L17.3271 28.3692L11.1562 26.4442C9.81666 26.0192 9.7875 25.1046 11.4396 24.4588Z" fill="white"/>
</svg>
