<svg width="50" height="50" viewBox="0 0 50 50" fill="none" xmlns="http://www.w3.org/2000/svg">
<ellipse cx="25" cy="24.8307" rx="25" ry="24.8307" fill="#545769"/>
<g clip-path="url(#clip0)">
<path d="M22.3747 23.8171C19.5029 23.8171 17.1665 21.4967 17.1665 18.6444C17.1665 15.792 19.5029 13.4714 22.3747 13.4714C25.2465 13.4714 27.5829 15.792 27.5829 18.6444C27.5829 21.4967 25.2465 23.8171 22.3747 23.8171ZM22.3747 15.0233C20.3644 15.0233 18.7289 16.6475 18.7289 18.6444C18.7289 20.641 20.3644 22.2653 22.3747 22.2653C24.385 22.2653 26.0205 20.641 26.0205 18.6444C26.0205 16.6475 24.385 15.0233 22.3747 15.0233Z" fill="#B0C9D8"/>
<path d="M30.9682 35.1976H13.7812C13.35 35.1976 13 34.85 13 34.4216V30.8005C13 28.091 15.2197 25.8864 17.9477 25.8864H26.8017C29.5297 25.8864 31.7494 28.091 31.7494 30.8005V34.4216C31.7494 34.85 31.3994 35.1976 30.9682 35.1976ZM14.5625 33.6457H30.187V30.8005C30.187 28.9467 28.6682 27.4382 26.8017 27.4382H17.9477C16.0812 27.4382 14.5625 28.9467 14.5625 30.8005V33.6457Z" fill="#B0C9D8"/>
<path d="M37.218 24.0759H28.3642C27.9329 24.0759 27.5829 23.7283 27.5829 23.3C27.5829 22.8717 27.9329 22.524 28.3642 22.524H37.218C37.6492 22.524 37.9992 22.8717 37.9992 23.3C37.9992 23.7283 37.6492 24.0759 37.218 24.0759Z" fill="#B0C9D8"/>
<path d="M33.0515 28.2142C32.8514 28.2142 32.6516 28.1386 32.4994 27.9866C32.1942 27.6834 32.1942 27.192 32.4994 26.8889L36.1139 23.2988L32.4994 19.7088C32.1942 19.4057 32.1942 18.9143 32.4994 18.6112C32.8045 18.3081 33.2993 18.3081 33.6046 18.6112L37.7711 22.7495C38.0763 23.0526 38.0763 23.5441 37.7711 23.8472L33.6046 27.9855C33.4515 28.1386 33.2514 28.2142 33.0515 28.2142Z" fill="#B0C9D8"/>
</g>
<defs>
<clipPath id="clip0">
<rect width="25" height="24.8307" fill="white" transform="translate(13 11.9188)"/>
</clipPath>
</defs>
</svg>
